<svg xmlns="http://www.w3.org/2000/svg" data-name="Layer 1" viewBox="0 0 1920 200">
  <defs>
    <linearGradient id="a" x1=".25" x2=".25" y1="521.71" y2="520.7" gradientTransform="matrix(1920 0 0 -99.5 482.9 52008.35)" gradientUnits="userSpaceOnUse">
      <stop offset="0" stop-color="#82ba38" stop-opacity="0"/>
      <stop offset="1" stop-color="#82ba38" stop-opacity=".5"/>
    </linearGradient>
  </defs>
  <path fill="none" stroke="url(#a)" stroke-width="2" d="M28 99.54l-28 5m0 6l60-11.1M0 115.72l92-16.18m32 0L0 123.75m156-24.21L0 130.89m0 8l188-39.35m32 0L0 147m253-47.46L0 158.11m0 10l285-68.57M0 179.31l317-79.77M0 191.47l349-91.93m1222 0l349 91.93m0-12.16l-317-79.77m317 68.72l-285-68.62m285 58.47l-253-58.57m253 47.52l-220-47.42m32-.1l188 39.38m-156-39.38l156 31.35m-124-31.35l124 24.21m0-7.93l-92-16.18m32 0l60 11.15m0-6.13l-28-5m-1511 0L25.8 199M413 99.54L77.69 199M446 99.54L129.48 199M478 99.54L181.5 199M510 99.54L233.4 199M542 99.54L285.3 199M574 99.54L337.21 199M606 99.54L389.11 199M638 99.54L441 199m230-99.46L492.9 199M703 99.54L544.8 199m51.91 0L735 99.54m32 0L648.6 199m51.9 0L799 99.54M752.41 199L831 99.54M804.3 199L864 99.54m32 0L856.21 199M928 99.54L908.1 199m52.5-99.46V199M992 99.54l19.91 99.46m51.9 0L1024 99.54m32 0l59.7 99.46m51.9 0L1089 99.54m32 0l98.5 99.46M1153 99.54L1271.41 199M1185 99.54L1323.31 199M1217 99.54L1375.2 199m51.9 0L1249 99.54m33 0L1479 199m-165-99.46L1530.91 199M1346 99.54L1582.81 199M1378 99.54L1634.72 199M1410 99.54L1686.7 199m51.82 0L1442 99.54m32 0L1790.41 199M1507 99.54L1842.32 199M1539 99.54L1894.21 199M0 99h1920M0 109.19h1920M0 119.23h1920M0 130.38h1920M0 143.44h1920M0 160.62h1920M0 177.8h1920M0 199h1920"/>
</svg>
