<svg data-name="Layer 1" xmlns="http://www.w3.org/2000/svg" viewBox="0 0 73.64 72"><path d="M36 71a35 35 0 1 0-20.82-6.86A35 35 0 0 0 36 71z" stroke="#6e6e6e" stroke-width="2" fill="none"/><path data-name="Oval" d="M50.19 13a26.52 26.52 0 0 0-4.12-2.08A27 27 0 1 0 62.7 32q-.14-.9-.33-1.8" stroke="#aaa" stroke-linecap="round" stroke-width="3" fill="none"/><path d="M73 4.67a2.32 2.32 0 0 0-3.26 0L35.82 38.45l-7.88-7.85a2.31 2.31 0 0 0-3.26 0 2.26 2.26 0 0 0-.68 1.63 2.29 2.29 0 0 0 .68 1.63l9.51 9.47a2.26 2.26 0 0 0 1.63.68 2.29 2.29 0 0 0 1.63-.68L73 7.93a2.29 2.29 0 0 0 .67-1.63A2.33 2.33 0 0 0 73 4.67z" fill="#82ba38"/></svg>