<svg xmlns="http://www.w3.org/2000/svg" xmlns:xlink="http://www.w3.org/1999/xlink" data-name="Layer 1" viewBox="0 0 1920 200">
  <defs>
    <linearGradient id="a" x1="68.68" x2="849.32" y1="-1564.85" y2="-1564.85" gradientTransform="matrix(1 0 0 -1 -34 -1430.06)" gradientUnits="userSpaceOnUse">
      <stop offset="0" stop-color="#82ba38" stop-opacity="0"/>
      <stop offset=".5" stop-color="#82ba38" stop-opacity=".5"/>
      <stop offset="1" stop-color="#82ba38" stop-opacity="0"/>
    </linearGradient>
    <linearGradient id="b" x1="1138.68" x2="1919.32" y1="-1564.85" y2="-1564.85" xlink:href="#a"/>
  </defs>
  <path fill="none" stroke="url(#a)" stroke-width="2" d="M327.4 200.17v-97.74l45.6-15.2v112.85m-121.4 0v-72.35l35.7-11.9v84.25M191 200v-52.17l28.7-9.6v61.69m-78.3.25v-35.74l23.6-7.9v43.39m-65 .25v-21.94l19.8-6.61v28.46m-54.8.09V190l16.8-5.6v15.68m-32.4-5v5M580.81 199.83L425 167.43l-155.55 32.38m-104.47 0l260-65L685.68 200m73.79 0L425 102.43 90.3 200m710.1 0v-4.88M768.1 200v-15.67l16.8 5.6V200m-54.8 0v-28.38l19.8 6.61V200m-65 0v-43.38l23.6 7.9V200m-78.3 0v-61.67l28.7 9.6V200m-96.3 0v-84.17l35.7 11.9V200M477 200V87.23l45.5 15.2V200m-97.5 0V70l390 130M425 70L35 200"/>
  <path fill="none" stroke="url(#b)" stroke-width="2" d="M1397.4 200.17v-97.74l45.6-15.2v112.85m-121.4 0v-72.35l35.7-11.9v84.25M1261 200v-52.17l28.7-9.6v61.69m-78.3.25v-35.74l23.6-7.9v43.39m-65 .25v-21.94l19.8-6.61v28.46m-54.8.09V190l16.8-5.6v15.68m-32.4-5v5M1650.81 199.83L1495 167.43l-155.55 32.38m-104.47 0l260-65 260.7 65.19m73.79 0L1495 102.43 1160.3 200m710.1 0v-4.88m-32.3 4.88v-15.67l16.8 5.6V200m-54.8 0v-28.38l19.8 6.61V200m-65 0v-43.38l23.6 7.9V200m-78.3 0v-61.67l28.7 9.6V200m-96.3 0v-84.17l35.7 11.9V200m-121.3 0V87.23l45.5 15.2V200m-97.5 0V70l390 130M1495 70l-390 130"/>
</svg>
