<svg xmlns="http://www.w3.org/2000/svg" xmlns:xlink="http://www.w3.org/1999/xlink" width="20" height="15">
  <defs>
    <path id="a" d="M644.87 3007h16.261c.732 0 .863.373.286.827l-7.204 5.706c-.327.26-.777.374-1.213.352-.438.022-.888-.093-1.214-.352l-7.204-5.706c-.576-.454-.445-.827.288-.827zm18.13 3.25v9.807c0 .733-.6 1.334-1.333 1.334h-17.334c-.733 0-1.333-.6-1.333-1.334v-9.806c0-.733.478-.97 1.063-.528l7.873 5.977c.295.22.68.329 1.065.324.384.005.77-.103 1.064-.324l7.872-5.977c.585-.443 1.063-.205 1.063.528z"/>
  </defs>
  <use fill="#82ba38" transform="translate(-643 -3007)" xlink:href="#a"/>
</svg>
