<svg xmlns="http://www.w3.org/2000/svg" id="Layer_1" data-name="Layer 1" viewBox="0 0 270 59.61"><defs><style>.cls-1{fill:#82ba41}.cls-10{fill:#fff}</style></defs><path id="Fill-5" d="M21.2 41.94A20.76 20.76 0 1 1 35.88 6.5a2.16 2.16 0 0 1 .63 1.5 2.13 2.13 0 0 1-.63 1.51l-7 7a2.14 2.14 0 0 1-3-3l5.34-5.34a16.49 16.49 0 1 0 1.61 24.73 2.14 2.14 0 0 1 3 3 20.7 20.7 0 0 1-14.63 6.04" class="cls-1"/><path fill="#6a9b35" d="M4.72 21.61a.43.43 0 0 1-.43-.43A16.91 16.91 0 0 1 31.5 7.78a.43.43 0 1 1-.53.67A16 16 0 0 0 5.15 21.18a.43.43 0 0 1-.43.43m22.69-4.07a2.56 2.56 0 0 1-1.81-.75.43.43 0 0 1 0-.61.42.42 0 0 1 .6 0 1.76 1.76 0 0 0 2.43 0l7-6.95a.42.42 0 0 1 .6 0 .43.43 0 0 1 0 .61l-6.95 7a2.56 2.56 0 0 1-1.82.75zM21.2 42.37a21 21 0 0 1-15-6.2.43.43 0 0 1 0-.61.45.45 0 0 1 .61 0 20.35 20.35 0 0 0 28.76 0 1.71 1.71 0 0 0 0-2.42.43.43 0 0 1 0-.61.45.45 0 0 1 .61 0 2.6 2.6 0 0 1 .75 1.82 2.56 2.56 0 0 1-.75 1.82 21 21 0 0 1-15 6.2"/><path fill="#b8d097" d="M6.51 36.3a.43.43 0 0 1-.3-.13 21.19 21.19 0 0 1 30-30 2.56 2.56 0 0 1 0 3.64.43.43 0 0 1-.6 0 .43.43 0 0 1 0-.61 1.73 1.73 0 0 0 0-2.43A20.34 20.34 0 0 0 .86 21.18a20.15 20.15 0 0 0 6 14.38.45.45 0 0 1 0 .61.48.48 0 0 1-.31.13m14.65 1.78a16.88 16.88 0 0 1-16.91-16.9.43.43 0 0 1 .43-.43.44.44 0 0 1 .43.43 16.05 16.05 0 0 0 27.4 11.35 2.64 2.64 0 0 1 3.64 0 .45.45 0 0 1 0 .61.43.43 0 0 1-.61 0 1.76 1.76 0 0 0-2.43 0 16.85 16.85 0 0 1-11.95 4.94m4.7-21.17a.47.47 0 0 1-.31-.12 2.58 2.58 0 0 1 0-3.64l5.34-5.34a.43.43 0 0 1 .61.61l-5.34 5.34a1.71 1.71 0 0 0 0 2.42.43.43 0 0 1 0 .61.42.42 0 0 1-.3.12"/><path id="Fill-3" fill="#808285" d="M21.2 33.05a11.87 11.87 0 1 1 0-23.73 2.14 2.14 0 1 1 0 4.28 7.59 7.59 0 1 0 7.58 7.58 2.14 2.14 0 1 1 4.28 0A11.87 11.87 0 0 1 21.2 33.05"/><path fill="#6d6e71" d="M21.2 33.48a12.19 12.19 0 0 1-8.69-3.61.42.42 0 0 1 0-.6.43.43 0 0 1 .61 0 11.43 11.43 0 0 0 19.51-8.08 1.72 1.72 0 0 0-1.71-1.72.43.43 0 0 1 0-.86 2.58 2.58 0 0 1 2.57 2.58A12.31 12.31 0 0 1 21.2 33.48m-7.58-11.87a.43.43 0 0 1-.43-.43 8 8 0 0 1 8-8 1.68 1.68 0 0 0 1.21-.5 1.7 1.7 0 0 0 .5-1.21.43.43 0 0 1 .43-.43.43.43 0 0 1 .43.43 2.58 2.58 0 0 1-.76 1.81 2.54 2.54 0 0 1-1.8.72 7.17 7.17 0 0 0-7.2 7.18.42.42 0 0 1-.42.43"/><path fill="#a7a9ac" d="M21.2 29.19a8 8 0 0 1-8-8 .43.43 0 1 1 .85 0 7.16 7.16 0 1 0 14.31 0 2.58 2.58 0 0 1 2.57-2.57.43.43 0 0 1 0 .86 1.71 1.71 0 0 0-1.71 1.71 8 8 0 0 1-8 8m-8.41.81a.39.39 0 0 1-.3-.13 12.28 12.28 0 0 1 8.69-21 2.58 2.58 0 0 1 2.57 2.57.43.43 0 0 1-.86 0 1.72 1.72 0 0 0-1.71-1.69 11.43 11.43 0 0 0-8.09 19.52.42.42 0 0 1 0 .6.39.39 0 0 1-.3.13"/><path id="Fill-1" fill="#ef4136" d="M23.38 19a3.09 3.09 0 1 0 0 4.37 3.1 3.1 0 0 0 0-4.37"/><path id="Fill-7" fill="#b22e25" d="M21.2 24.7a3.5 3.5 0 0 1-2.49-1 .43.43 0 0 1 0-.61.45.45 0 0 1 .61 0 2.66 2.66 0 0 0 3.76-3.75.43.43 0 0 1 0-.61.42.42 0 0 1 .6 0 3.52 3.52 0 0 1 0 5 3.47 3.47 0 0 1-2.48 1"/><path id="Fill-29" fill="#f37167" d="M19 23.8a.43.43 0 0 1-.3-.13 3.52 3.52 0 0 1 0-5 3.51 3.51 0 0 1 5 0 .42.42 0 0 1-.6.6 2.66 2.66 0 0 0-3.76 3.76.45.45 0 0 1 0 .61.48.48 0 0 1-.31.13"/><path id="Fill-31" d="M163.28 17.29h4.43c.65 0 1-.69 1-1.42s-.4-1.41-1-1.41h-4.43V7.81c0-.72-1-1.23-1.92-1.23s-1.89.51-1.89 1.23V26c0 4 2.21 5.67 6.35 5.67h1.27a1.64 1.64 0 0 0 0-3.27h-1.27c-1.89 0-2.54-.65-2.54-2.4zm-18.23 4.1a3.58 3.58 0 0 1 3.49-3.77 3.85 3.85 0 0 1 3.67 3.77v9c0 .83 1 1.27 1.88 1.27s1.91-.43 1.91-1.26v-9c0-3.92-2.91-7.15-6.32-7.15a5.35 5.35 0 0 0-4.84 2.75v-1.31c0-.72-.77-1.23-1.71-1.23-1.13 0-1.89.51-1.89 1.23V30.4c0 .61.76 1.27 1.89 1.27s1.92-.66 1.92-1.27zm-11.55.33c1.05 0 1.34-.22 1.34-1.09a3.69 3.69 0 0 0-7.37-.07v1.16zm4.94-.77c0 3-1.67 3.13-3.31 3.13h-7.66v.83c0 2.44 1.92 4 4.72 4 2.58 0 3.45-1.38 4.43-1.38s1.49 1.05 1.49 1.71c0 1.09-2.36 2.76-6 2.76-4.94 0-8.42-2.91-8.42-7.23v-3.49a7.35 7.35 0 0 1 7.55-7c3.86-.04 7.2 2.72 7.2 6.72zm-32.15 9.49c0 .86 1 1.23 1.89 1.23s1.92-.37 1.92-1.23v-9.12a3.41 3.41 0 1 1 6.79.08v9c0 .61.91 1.27 1.89 1.27s1.93-.66 1.93-1.27v-9c0-4.58-3-7.16-6.32-7.16a6.18 6.18 0 0 0-5.49 3.63 5.2 5.2 0 0 0-4.75-3.63A5.4 5.4 0 0 0 99.32 17v-1.31c0-.73-.8-1.23-1.71-1.23-1.12 0-1.88.5-1.88 1.23V30.4c0 .61.76 1.27 1.88 1.27s1.93-.66 1.93-1.27v-9a3.45 3.45 0 0 1 3.37-3.78 3.51 3.51 0 0 1 3.38 3.74zM88 21.72c1.06 0 1.34-.22 1.34-1.09a3.69 3.69 0 0 0-7.34-.07v1.16zm4.92-.72c0 3-1.67 3.13-3.3 3.13H82v.83c0 2.44 1.92 4 4.72 4 2.57 0 3.44-1.38 4.43-1.38s1.48 1.05 1.48 1.71c0 1.09-2.36 2.76-6 2.76-4.93 0-8.42-2.91-8.42-7.23v-3.54a7.36 7.36 0 0 1 7.55-7c3.82-.04 7.16 2.72 7.16 6.72zm-18-15.5c0-.72-.87-1.23-1.92-1.23s-1.89.51-1.89 1.23v25c0 .61.76 1.27 1.89 1.27s1.92-.66 1.92-1.27zM63.16 21.72c1.06 0 1.35-.22 1.35-1.09a3.56 3.56 0 0 0-3.67-3.49 3.52 3.52 0 0 0-3.7 3.42v1.16zM68.1 21c0 3-1.67 3.13-3.3 3.13h-7.66v.83c0 2.44 1.92 4 4.72 4 2.58 0 3.45-1.38 4.43-1.38s1.49 1.05 1.49 1.71c0 1.09-2.36 2.76-6 2.76-4.94 0-8.43-2.91-8.43-7.23v-3.54a7.36 7.36 0 0 1 7.56-7C64.76 14.24 68.1 17 68.1 21z" class="cls-1"/><path id="Fill-33" d="M269.39 5.45c0-.72-.87-1.23-1.92-1.23s-1.89.51-1.89 1.23v25c0 .61.76 1.27 1.89 1.27s1.92-.66 1.92-1.27zM258 25.42c0 1.75-2.07 3.63-3.88 3.63a2.15 2.15 0 0 1-2.36-2.36c0-2.32 2.57-2.61 5.33-2.61h.91zm3.81-4.14c0-3.63-2-7-7.33-7-2.47 0-5.49 1-5.49 2.32 0 .88.48 1.93 1.39 1.93.72 0 1.38-1.09 4-1.09s3.62 2.03 3.62 3.88V22h-1.6c-5 0-8.5 1.09-8.5 5.2 0 3.27 2.19 4.79 4.84 4.79a7.14 7.14 0 0 0 5.48-2.83v1.24c0 .69.76 1.27 1.74 1.27s1.85-.58 1.85-1.27zm-29.06 3.45c0 4.14 2.32 7.23 7.55 7.23 3.34 0 5.74-1.49 5.74-2.76a1.82 1.82 0 0 0-1.64-1.82c-.83 0-1.41 1.2-3.81 1.2-2.79 0-4-1.45-4-3.85v-3.26c0-2.4 1.27-3.85 4-3.85 2.32 0 3 1.12 3.74 1.12s1.52-1.12 1.52-1.85c0-1.27-2.25-2.65-5.56-2.65-5.19 0-7.51 3.16-7.51 7.23zm-3.07-9c0-.72-.84-1.23-1.93-1.23s-1.89.51-1.89 1.23V30.4c0 .61.8 1.27 1.89 1.27s1.93-.66 1.93-1.27zm.32-7.59a2.23 2.23 0 0 0-4.43 0 2.23 2.23 0 0 0 4.43 0zm-12 9.15h4.43c.65 0 1.05-.69 1.05-1.42s-.4-1.41-1.05-1.41H218V7.81c0-.72-1-1.23-1.92-1.23s-1.89.51-1.89 1.23V26c0 4 2.21 5.67 6.35 5.67h1.27a1.64 1.64 0 1 0 0-3.27h-1.27c-1.88 0-2.54-.65-2.54-2.4zm-7.35-1.6c0-.72-.84-1.23-1.93-1.23s-1.89.51-1.89 1.23V30.4c0 .61.8 1.27 1.89 1.27s1.93-.66 1.93-1.27zm.35-7.55a2.22 2.22 0 0 0-4.42 0 2.22 2.22 0 0 0 4.42 0zm-7.73 9.48a1.63 1.63 0 0 0 1.45-1.71 1.61 1.61 0 0 0-1.45-1.67h-1.16a5.41 5.41 0 0 0-4.62 3v-1.6c0-.72-.8-1.23-1.74-1.23s-1.85.51-1.85 1.23V30.4c0 .61.76 1.27 1.85 1.27s2-.66 2-1.27V23c0-3.3 2.18-5.33 4.4-5.33zm-25.09 7.11v-3.26c0-4.07 2.33-7.23 7.52-7.23 3.3 0 5.55 1.38 5.55 2.65 0 .73-.61 1.85-1.52 1.85s-1.42-1.12-3.74-1.12c-2.72 0-4 1.45-4 3.85v3.26c0 2.4 1.24 3.85 4 3.85 2.4 0 3-1.2 3.82-1.2a1.81 1.81 0 0 1 1.63 1.82c0 1.27-2.4 2.76-5.73 2.76-5.25.04-7.58-3.09-7.58-7.23z" class="cls-10"/><path id="Fill-35" d="M269.05 52.55c0 .83-.61 1.55-2.22 1.55-1.85 0-2.26-.94-2.66-.94-.18 0-.36.26-.36.46 0 .54 1.19 1.37 3 1.37s3.15-1 3.15-2.5c0-3.7-5.05-2.12-5.05-4.62 0-.75.57-1.76 2.16-1.76a6.25 6.25 0 0 1 2.12.55c.24 0 .45-.34.45-.53 0-.44-1.34-.91-2.59-.91a2.73 2.73 0 0 0-3.05 2.67c0 3.35 5.05 1.73 5.05 4.66zm-8.95-2.95c.91 0 1.13-.12 1.13-.72a2.76 2.76 0 0 0-2.7-2.77 2.7 2.7 0 0 0-2.73 2.67v.82zm2.1-.72c0 1.51-.85 1.55-1.72 1.55h-4.68v.85c0 1.73 1.37 2.8 3.25 2.8 1.65 0 2-.8 2.4-.8a.53.53 0 0 1 .46.48c0 .42-1.11 1.23-2.9 1.23-2.46 0-4.2-1.49-4.2-3.73v-2.4a3.71 3.71 0 0 1 3.72-3.64 3.65 3.65 0 0 1 3.67 3.66zm-9.6-3.13v8.68a.49.49 0 0 1-.5.44.47.47 0 0 1-.49-.44v-8.68a.44.44 0 0 1 .49-.41.45.45 0 0 1 .5.41zm.25-4.16a.76.76 0 0 1-.75.75.75.75 0 0 1-.77-.75.73.73 0 0 1 .77-.7.74.74 0 0 1 .75.7zm-6.15 4.62h2.69a.42.42 0 0 0 .38-.42.43.43 0 0 0-.38-.45h-2.69v-4.19a.48.48 0 0 0-.5-.43.49.49 0 0 0-.48.43V52c0 2 1.06 2.89 3.06 2.89h.51a.47.47 0 0 0 0-.93h-.51c-1.53 0-2.08-.52-2.08-2zm-3.47-.46v8.68a.5.5 0 0 1-.51.44.47.47 0 0 1-.48-.44v-8.68a.43.43 0 0 1 .48-.41.46.46 0 0 1 .51.41zm.24-4.16a.76.76 0 0 1-1.52 0 .76.76 0 0 1 1.52 0zm-3.87-1.75a.46.46 0 0 0-.51-.43.44.44 0 0 0-.48.43v14.59a.47.47 0 0 0 .48.44.49.49 0 0 0 .51-.44zm-3.6 5.91v8.68a.49.49 0 0 1-.5.44.47.47 0 0 1-.49-.44v-8.68a.44.44 0 0 1 .49-.41.45.45 0 0 1 .5.41zm.24-4.16a.76.76 0 0 1-1.51 0 .76.76 0 0 1 1.51 0zm-9.81 9.67A3.45 3.45 0 0 0 230.2 55c1.75 0 2.84-.77 2.84-1.25a.51.51 0 0 0-.44-.49c-.39 0-.73.81-2.36.81a2.56 2.56 0 0 1-2.85-2.8V49a2.57 2.57 0 0 1 2.83-2.81c1.53 0 1.89.79 2.24.79a.49.49 0 0 0 .46-.48c0-.47-1.07-1.24-2.72-1.24a3.47 3.47 0 0 0-3.8 3.74zm-3.21-.83h-1c-2 0-3.81.18-3.81 1.86a1.72 1.72 0 0 0 1.94 1.81c1.41 0 2.86-1.29 2.86-2.17zm1-1.33v5.33a.45.45 0 0 1-.48.44.47.47 0 0 1-.49-.44v-1a4 4 0 0 1-3 1.53 2.52 2.52 0 0 1-2.79-2.66c0-2.16 1.9-2.71 4.7-2.71h1.09v-.49c0-1.41-.7-3-2.54-3a5.58 5.58 0 0 0-2.12.56c-.28 0-.44-.33-.44-.54 0-.44 1.35-.93 2.6-.93 2.52.03 3.43 1.91 3.43 3.91zM212.89 43a2.71 2.71 0 0 1 2.69-2.68h.26a.44.44 0 0 0 .46-.44.48.48 0 0 0-.46-.49h-.34a3.68 3.68 0 0 0-3.59 3.65v11.4a.42.42 0 0 0 .46.43.46.46 0 0 0 .52-.43v-8.23h3a.44.44 0 0 0 0-.87h-3zm-11.13 11.55c-.61 2-1.58 4.14-2.93 4.14-.26 0-.36.22-.36.46a.43.43 0 0 0 .46.46c2 0 3.07-3 3.84-5.06l3.19-8.7a.86.86 0 0 0 0-.16.56.56 0 0 0-.56-.48.44.44 0 0 0-.39.25l-2.76 7.78-2.84-7.78a.4.4 0 0 0-.39-.25.56.56 0 0 0-.58.48.47.47 0 0 0 0 .16zm-6.58-6a2.4 2.4 0 1 0-4.79 0v.81a2.4 2.4 0 1 0 4.79 0zM191.85 55c-1 .3-2 .83-2 1.88s1.13 1.93 3 1.93 2.88-.76 2.88-1.95c.05-1.86-2.61-1.71-3.88-1.86zm-.69-2.66c-.36.18-.73.4-.73.89 0 1.93 6.34-.07 6.34 3.59 0 1.81-1.55 2.8-3.87 2.8s-4-1-4-2.64a2.39 2.39 0 0 1 1.78-2.22 1.4 1.4 0 0 1-1.17-1.41 1.47 1.47 0 0 1 1-1.43 3.38 3.38 0 0 1-1.06-2.55v-.83a3.17 3.17 0 0 1 3.34-3.31 3.32 3.32 0 0 1 2.39.91 2 2 0 0 1 1.47-1.25.47.47 0 0 1 .52.46.4.4 0 0 1-.36.41 1.48 1.48 0 0 0-1.17.91 3.17 3.17 0 0 1 .53 1.87v.83a3.42 3.42 0 0 1-5 3zm-4.73-3.41a2.72 2.72 0 1 0-5.43 0v2.34a2.82 2.82 0 0 0 2.7 2.8 2.85 2.85 0 0 0 2.73-2.8zm1 0v2.34a3.71 3.71 0 1 1-7.41 0v-2.35a3.71 3.71 0 0 1 7.41 0zm-9.74-9.08a.46.46 0 0 0-.5-.43.45.45 0 0 0-.49.43v14.58a.48.48 0 0 0 .49.44.49.49 0 0 0 .5-.44zm-4.32 9.08a2.72 2.72 0 1 0-5.43 0v2.34a2.82 2.82 0 0 0 2.7 2.8 2.85 2.85 0 0 0 2.73-2.8zm1 0v2.34a3.71 3.71 0 1 1-7.41 0v-2.35a3.71 3.71 0 0 1 7.41 0zm-15.86 0a2.66 2.66 0 0 1 2.61-2.77 2.84 2.84 0 0 1 2.7 2.77v5.51a.45.45 0 0 0 .49.44.46.46 0 0 0 .5-.44v-5.52a3.69 3.69 0 0 0-3.61-3.7 3 3 0 0 0-2.71 1.54v-1a.44.44 0 0 0-.48-.41.43.43 0 0 0-.48.41v8.68a.47.47 0 0 0 .48.44.49.49 0 0 0 .5-.44zm-9.78 0a2.65 2.65 0 0 1 2.6-2.77 2.84 2.84 0 0 1 2.7 2.77v5.51a.45.45 0 0 0 .49.44.46.46 0 0 0 .5-.44v-5.52a3.68 3.68 0 0 0-3.61-3.7 3 3 0 0 0-2.68 1.54v-6.92a.46.46 0 0 0-.51-.43.44.44 0 0 0-.48.43v14.59a.47.47 0 0 0 .48.44.49.49 0 0 0 .51-.44zm-9.57 2.34a3.45 3.45 0 0 0 3.77 3.73c1.76 0 2.85-.77 2.85-1.25a.51.51 0 0 0-.45-.49c-.38 0-.72.81-2.36.81a2.56 2.56 0 0 1-2.84-2.8V49a2.57 2.57 0 0 1 2.87-2.85c1.54 0 1.9.79 2.24.79a.49.49 0 0 0 .47-.48c0-.47-1.07-1.24-2.73-1.24a3.46 3.46 0 0 0-3.84 3.78zm-4-1.66c.91 0 1.13-.12 1.13-.72a2.76 2.76 0 0 0-2.7-2.77 2.7 2.7 0 0 0-2.73 2.67v.82zm2.1-.72c0 1.51-.85 1.55-1.72 1.55h-4.68v.85c0 1.73 1.38 2.8 3.25 2.8 1.66 0 2-.8 2.4-.8a.54.54 0 0 1 .47.48c0 .42-1.11 1.23-2.91 1.23-2.46 0-4.2-1.49-4.2-3.73v-2.4a3.71 3.71 0 0 1 3.72-3.64 3.65 3.65 0 0 1 3.69 3.65zm-11.59-2.67h2.68a.42.42 0 0 0 .39-.42.43.43 0 0 0-.39-.45h-2.68v-4.2a.5.5 0 0 0-1 0V52c0 2 1.07 2.89 3.06 2.89h.51a.47.47 0 0 0 0-.93h-.51c-1.53 0-2.07-.52-2.07-2zm-8-6.37a.46.46 0 0 0-.51-.43.44.44 0 0 0-.48.43v14.58a.47.47 0 0 0 .48.44.49.49 0 0 0 .51-.44zm-4.57 10.59h-1c-2 0-3.82.18-3.82 1.86a1.73 1.73 0 0 0 1.94 1.81c1.41 0 2.87-1.29 2.87-2.17zm1-1.33v5.33a.45.45 0 0 1-.48.44.48.48 0 0 1-.49-.44v-1a4 4 0 0 1-3 1.53 2.52 2.52 0 0 1-2.79-2.66c0-2.16 1.9-2.71 4.7-2.71h1.1v-.5c0-1.41-.71-3-2.55-3a5.58 5.58 0 0 0-2.12.56c-.28 0-.44-.33-.44-.54 0-.44 1.35-.93 2.6-.93 2.56.03 3.46 1.91 3.46 3.91zm-8.75-3.35v8.68a.49.49 0 0 1-.5.44.48.48 0 0 1-.49-.44v-8.69a.44.44 0 0 1 .49-.41.45.45 0 0 1 .49.41zm.24-4.16a.76.76 0 0 1-1.51 0 .76.76 0 0 1 1.51 0zm-6.14 4.62h2.69a.42.42 0 0 0 .38-.42.43.43 0 0 0-.38-.45h-2.7v-4.2a.48.48 0 0 0-.5-.43.49.49 0 0 0-.48.43V52c0 2 1.06 2.89 3.06 2.89h.48a.47.47 0 0 0 0-.93h-.51c-1.53 0-2.08-.52-2.08-2zm-9.72 2.71a2.65 2.65 0 0 1 2.6-2.77A2.84 2.84 0 0 1 95 48.92v5.51a.44.44 0 0 0 .48.44.47.47 0 0 0 .51-.44v-5.51a3.69 3.69 0 0 0-3.61-3.7 3 3 0 0 0-2.71 1.54v-1a.44.44 0 0 0-.48-.41.44.44 0 0 0-.49.41v8.68a.47.47 0 0 0 .49.44.49.49 0 0 0 .5-.44zm-5.12.68c.91 0 1.13-.12 1.13-.72A2.75 2.75 0 0 0 83 46.11a2.7 2.7 0 0 0-2.72 2.67v.82zm2.1-.72c0 1.51-.84 1.55-1.71 1.55h-4.69v.85c0 1.73 1.37 2.8 3.24 2.8 1.66 0 2-.8 2.41-.8a.53.53 0 0 1 .46.48c0 .42-1.11 1.23-2.91 1.23-2.46 0-4.19-1.49-4.19-3.73v-2.4A3.7 3.7 0 0 1 83 45.22a3.64 3.64 0 0 1 3.7 3.66zm-10.16 3.66c0 .83-.61 1.55-2.22 1.55-1.86 0-2.26-.94-2.66-.94-.19 0-.37.26-.37.46 0 .54 1.19 1.37 3 1.37s3.14-1 3.14-2.5c0-3.7-5-2.12-5-4.62 0-.75.57-1.76 2.16-1.76a6.25 6.25 0 0 1 2.12.55c.24 0 .45-.34.45-.53 0-.44-1.34-.91-2.59-.91a2.73 2.73 0 0 0-3.06 2.67c.01 3.35 5.03 1.73 5.03 4.66zm-7.88 0c0 .83-.6 1.55-2.22 1.55-1.85 0-2.26-.94-2.66-.94-.18 0-.36.26-.36.46 0 .54 1.19 1.37 3 1.37 2 0 3.15-1 3.15-2.5 0-3.7-5-2.12-5-4.62 0-.75.56-1.76 2.15-1.76a6.25 6.25 0 0 1 2.12.55c.25 0 .45-.34.45-.53 0-.44-1.33-.91-2.59-.91a2.73 2.73 0 0 0-3.06 2.67c0 3.35 5.02 1.73 5.02 4.66zm-9-2.95c.9 0 1.13-.12 1.13-.72a2.76 2.76 0 0 0-2.7-2.77 2.7 2.7 0 0 0-2.73 2.67v.82zm2.1-.72c0 1.51-.85 1.55-1.72 1.55h-4.63v.85c0 1.73 1.37 2.8 3.25 2.8 1.65 0 2-.8 2.4-.8a.53.53 0 0 1 .46.48c0 .42-1.1 1.23-2.9 1.23-2.46 0-4.2-1.49-4.2-3.73v-2.4a3.71 3.71 0 0 1 3.72-3.64 3.65 3.65 0 0 1 3.67 3.66z" class="cls-10"/></svg>