<svg xmlns="http://www.w3.org/2000/svg" xmlns:xlink="http://www.w3.org/1999/xlink" width="21" height="22">
  <defs>
    <path id="a" d="M1698.946 372.107c3.238 0 5.873 2.675 5.873 5.963 0 3.288-2.635 5.963-5.873 5.963-3.239 0-5.873-2.675-5.873-5.963 0-3.288 2.634-5.963 5.873-5.963zm10.765 16.11l-4.684-4.95a8.128 8.128 0 0 0 1.864-5.192c0-4.452-3.564-8.075-7.945-8.075s-7.946 3.623-7.946 8.075c0 4.452 3.565 8.075 7.946 8.075a7.774 7.774 0 0 0 4.552-1.461l4.72 4.988a1.022 1.022 0 0 0 1.465.03 1.069 1.069 0 0 0 .028-1.49z"/>
  </defs>
  <g transform="translate(-1690 -369)">
    <use fill="#4c4c4c" xlink:href="#a"/>
    <use fill="#fff" fill-opacity="0" stroke="#4c4c4c" stroke-miterlimit="50" stroke-width=".6" xlink:href="#a"/>
  </g>
</svg>
