<svg xmlns="http://www.w3.org/2000/svg" xmlns:xlink="http://www.w3.org/1999/xlink" width="21" height="17">
  <defs>
    <path id="a" d="M611.643 3010.203c.008.183.012.367.012.552 0 5.63-4.286 12.123-12.123 12.123a12.06 12.06 0 0 1-6.532-1.914 8.61 8.61 0 0 0 6.309-1.765 4.265 4.265 0 0 1-3.981-2.959 4.247 4.247 0 0 0 1.924-.073 4.264 4.264 0 0 1-3.418-4.178v-.053a4.26 4.26 0 0 0 1.93.533 4.259 4.259 0 0 1-1.895-3.547c0-.78.21-1.513.577-2.142a12.097 12.097 0 0 0 8.783 4.452 4.261 4.261 0 0 1 7.26-3.887 8.529 8.529 0 0 0 2.706-1.033 4.273 4.273 0 0 1-1.873 2.357 8.52 8.52 0 0 0 2.447-.671 8.652 8.652 0 0 1-2.126 2.205z"/>
  </defs>
  <use fill="#82ba38" transform="translate(-593 -3006)" xlink:href="#a"/>
</svg>
