<svg xmlns="http://www.w3.org/2000/svg" data-name="Layer 1" viewBox="0 0 20.77 16.88"><path fill="#828282" d="M18.64 4.2v.55A12 12 0 0 1 6.53 16.88 12.08 12.08 0 0 1 0 15a8.47 8.47 0 0 0 1 0 8.58 8.58 0 0 0 5.31-1.8 4.26 4.26 0 0 1-4-3 4.26 4.26 0 0 0 .8.08 4.58 4.58 0 0 0 1.12-.15A4.27 4.27 0 0 1 .83 6a4.38 4.38 0 0 0 1.93.53A4.27 4.27 0 0 1 .87 2.92 4.21 4.21 0 0 1 1.45.78a12.09 12.09 0 0 0 8.78 4.45 4.44 4.44 0 0 1-.11-1 4.26 4.26 0 0 1 7.37-2.91 8.81 8.81 0 0 0 2.71-1 4.29 4.29 0 0 1-1.88 2.36A8.47 8.47 0 0 0 20.77 2a8.57 8.57 0 0 1-2.13 2.2z"/></svg>