<svg data-name="Layer 1" xmlns="http://www.w3.org/2000/svg" viewBox="0 0 49.43 45.9"><path d="M30.38 36.54h7.72a12 12 0 0 0 8-4A12.53 12.53 0 0 0 40.29 12h-.15v-.16a14.21 14.21 0 0 0-26.36-4.72l-.09.16h-.18A8.22 8.22 0 0 0 12 7.1a7.68 7.68 0 0 0-7.67 7.67 9.13 9.13 0 0 0 .16 1.6v.15l-.12.1A10.76 10.76 0 0 0 0 25.29a11.52 11.52 0 0 0 2.93 7.63 10.42 10.42 0 0 0 7.21 3.63H19a1.14 1.14 0 1 0 0-2.27h-8.75c-4.33-.26-8-4.38-8-9A8.5 8.5 0 0 1 6.47 18 1.13 1.13 0 0 0 7 16.6a5.18 5.18 0 0 1-.32-1.85 5.4 5.4 0 0 1 7.23-5.07 1.14 1.14 0 0 0 1.39-.58A11.94 11.94 0 0 1 38 13a1.13 1.13 0 0 0 .94 1 10.24 10.24 0 0 1-1 20.23h-7.56a1.14 1.14 0 1 0 0 2.27z" fill="#aaa"/><path d="M33 26.61a1.39 1.39 0 0 0 0-2l-7.35-7.34a1.36 1.36 0 0 0-2 0l-7.25 7.38a1.39 1.39 0 0 0 1 2.37 1.32 1.32 0 0 0 1-.41l5-5v22.9a1.39 1.39 0 0 0 2.78 0V21.63l5 5a1.39 1.39 0 0 0 1.82-.02z" fill="#ef4136"/></svg>