<svg id="Layer_1" data-name="Layer 1" xmlns="http://www.w3.org/2000/svg" viewBox="0 0 46.44 49.68"><defs><style>.cls-1{fill:#ef4136}</style></defs><g id="CrossConnect"><path id="Path" class="cls-1" d="M17.34 34.94a1.43 1.43 0 0 0-2 .29 12.39 12.39 0 0 1-10 5H1.43a1.43 1.43 0 0 0 0 2.86h4a15.18 15.18 0 0 0 7-1.66 15.38 15.38 0 0 0 5.2-4.43 1.45 1.45 0 0 0-.29-2.06z"/><path id="Path-2" data-name="Path" class="cls-1" d="M21.38 14.84a1.44 1.44 0 0 0 .88.3 1.46 1.46 0 0 0 1.13-.56 12.38 12.38 0 0 1 9.85-4.83h8.32l-4.44 4.44a1.44 1.44 0 0 0 1 2.45 1.4 1.4 0 0 0 1-.42L46 9.33a1.42 1.42 0 0 0 0-2L39.13.42a1.43 1.43 0 0 0-2 2l4.44 4.44h-8.34a15.23 15.23 0 0 0-12.12 6 1.45 1.45 0 0 0 .27 1.98z"/><path d="M39 49.35l6.89-6.89a1.21 1.21 0 0 0 .35-.84 1.18 1.18 0 0 0-.35-.83L39 33.91a1.18 1.18 0 0 0-1.67 1.67l4.86 4.87h-8.95a12.74 12.74 0 0 1-12.72-12.72v-5.51A15.1 15.1 0 0 0 5.45 7.14h-4a1.18 1.18 0 0 0 0 2.36h4a12.73 12.73 0 0 1 12.71 12.72v5.51a15.1 15.1 0 0 0 15.08 15.08h8.92l-4.86 4.86a1.16 1.16 0 0 0-.35.84 1.14 1.14 0 0 0 .35.83 1.2 1.2 0 0 0 1.7.01z" fill="#aaa"/></g></svg>