<svg xmlns="http://www.w3.org/2000/svg" data-name="Layer 1" viewBox="0 0 49.37 49.37"><path fill="#aaa" d="M49.37 26.88v-4.39a2.73 2.73 0 0 0-2.31-2.75l-3.69-.63v-.18a19.7 19.7 0 0 0-1.39-3.35l-.09-.16 2.18-3a2.78 2.78 0 0 0-.3-3.59l-3.16-3.16a2.83 2.83 0 0 0-3.61-.3l-3 2.18-.16-.09A18.9 18.9 0 0 0 30.33 6h-.17l-.62-3.65A2.78 2.78 0 0 0 26.79 0h-4.4a2.78 2.78 0 0 0-2.75 2.33L19 6.06l-.17.05a19.55 19.55 0 0 0-3.34 1.41l-.17.09-3-2.18a2.86 2.86 0 0 0-3.59.3L5.59 8.85a2.78 2.78 0 0 0-.3 3.59l2.19 3.08-.08.17A18.07 18.07 0 0 0 6 19.05v.17l-3.65.62A2.78 2.78 0 0 0 0 22.59V27a2.78 2.78 0 0 0 2.33 2.75l3.73.64.05.17a19.55 19.55 0 0 0 1.41 3.34l.09.16-2.17 3a2.78 2.78 0 0 0 .31 3.59l3.11 3.11a2.83 2.83 0 0 0 3.58.3l3.08-2.19.17.08a19.49 19.49 0 0 0 3.24 1.34l.18.05.61 3.66a2.79 2.79 0 0 0 2.76 2.33h4.4A2.77 2.77 0 0 0 29.63 47l.63-3.69.18-.05a19.7 19.7 0 0 0 3.35-1.39l.16-.09L37 44a2.86 2.86 0 0 0 3.59-.3l3.12-3.12A2.79 2.79 0 0 0 44 37l-2.18-3.05.09-.16a20.52 20.52 0 0 0 1.39-3.35l.05-.18 3.65-.63a2.77 2.77 0 0 0 2.37-2.75zm-2.19.3h-.09a.6.6 0 0 1-.4.27l-4.38.73a1.11 1.11 0 0 0-.89.81 16.94 16.94 0 0 1-1.85 4.45 1.13 1.13 0 0 0 0 1.21l2.58 3.63a.59.59 0 0 1-.06.74L39 42.14a.59.59 0 0 1-.74.06l-3.62-2.58a1.13 1.13 0 0 0-1.21 0 16.94 16.94 0 0 1-4.43 1.8 1.08 1.08 0 0 0-.81.88l-.74 4.39a.56.56 0 0 1-.57.48h-4.39a.56.56 0 0 1-.57-.48l-.73-4.38a1.11 1.11 0 0 0-.81-.89A17.86 17.86 0 0 1 16 39.64a1.13 1.13 0 0 0-1.19 0l-3.66 2.6a.54.54 0 0 1-.74-.06l-3.09-3.06a.59.59 0 0 1-.08-.73l2.58-3.61a1.14 1.14 0 0 0 0-1.22A16.91 16.91 0 0 1 8 29.12a1.13 1.13 0 0 0-.89-.82l-4.41-.75a.56.56 0 0 1-.48-.55v-4.4a.58.58 0 0 1 .48-.6l4.35-.73a1.1 1.1 0 0 0 .9-.82A16.8 16.8 0 0 1 9.77 16a1.13 1.13 0 0 0-.06-1.2l-2.6-3.65a.59.59 0 0 1 .06-.74l3.11-3.11a.58.58 0 0 1 .72-.05l3.59 2.56a1.14 1.14 0 0 0 1.22 0A16.91 16.91 0 0 1 20.28 8a1.13 1.13 0 0 0 .82-.89l.75-4.41a.56.56 0 0 1 .56-.48h4.4a.57.57 0 0 1 .57.48l.73 4.3a1.1 1.1 0 0 0 .82.9 17.12 17.12 0 0 1 4.56 1.87 1.11 1.11 0 0 0 1.2-.05l3.6-2.59a.61.61 0 0 1 .33-.11.57.57 0 0 1 .41.17l3.12 3.11a.59.59 0 0 1 .07.73l-2.59 3.64a1.13 1.13 0 0 0-.05 1.21 16.94 16.94 0 0 1 1.85 4.45 1.11 1.11 0 0 0 .88.81l4.39.74a.56.56 0 0 1 .48.57z"/><path fill="#ef4136" d="M24.7 32.7a8 8 0 1 1 8-8 8 8 0 0 1-8 8z"/></svg>