<svg xmlns="http://www.w3.org/2000/svg" id="Layer_1" data-name="Layer 1" viewBox="0 0 49.16 49.32"><defs><style>.cls-1{fill:#ef4136}</style></defs><g id="Design_Build" data-name="Design+Build"><path d="M1.19 45.15h31.29v4.17H1.19zM36.65 45.15h4.17v4.17h-4.17zM44.99 45.15h4.17v4.17h-4.17z" class="cls-1"/><path fill="#aaa" d="M15 43.53l31.72-31.72a5.27 5.27 0 0 0 0-7.44l-2.88-2.88a5.4 5.4 0 0 0-7.46 0L4.67 33.21a1.14 1.14 0 0 0-.28.46l-4.33 13A1.15 1.15 0 0 0 0 47a1.18 1.18 0 0 0 1.19 1.2 1.44 1.44 0 0 0 .37-.05l12.18-4.06.79-.27a1.2 1.2 0 0 0 .47-.29zM38.07 3.16a2.93 2.93 0 0 1 4.07 0L45 6a2.9 2.9 0 0 1 0 4.1l-4.93 4.93-7-7zm-35 42l3-8.91L12 42.17zM7.19 34L31.46 9.77l7 7L14.16 41z"/></g></svg>