<svg id="Layer_1" data-name="Layer 1" xmlns="http://www.w3.org/2000/svg" viewBox="0 0 48.3 48.33"><defs><style>.cls-1{fill:#aaa}</style></defs><g id="MetroConnect"><path class="cls-1" d="M22.44 25.9a9 9 0 0 0-12.73 0L2.64 33a9 9 0 1 0 12.72 12.69l7.08-7.07a9 9 0 0 0 0-12.72zM21 37.21l-7 7.07a7 7 0 0 1-9.9-9.9l7.07-7.07a7 7 0 1 1 9.9 9.9zM45.67 2.63a9 9 0 0 0-12.73 0L25.87 9.7A9 9 0 0 0 38.6 22.43l7.07-7.07a9 9 0 0 0 0-12.73zM44.26 14l-7.07 7a7 7 0 1 1-9.9-9.9l7.07-7.07a7 7 0 1 1 9.9 9.9z"/><path d="M16.29 33.52A1.5 1.5 0 0 1 15.23 31l17-17a1.49 1.49 0 0 1 2.12 0 1.51 1.51 0 0 1 0 2.12l-17 17a1.53 1.53 0 0 1-1.06.4z" fill="#ef4136"/></g></svg>