<svg data-name="Layer 1" xmlns="http://www.w3.org/2000/svg" viewBox="0 0 50.99 51"><g data-name="Network-&amp;-Device-Management"><rect width="10" height="10" rx="5" ry="5" fill="#ef4136"/><path d="M49 39.64L33.39 24a14.36 14.36 0 0 0 .73-4.53l-.12-.89A14.43 14.43 0 0 0 13.32 6.45L12 7.06l10 10a3.56 3.56 0 0 1 .79 1.27 3.52 3.52 0 0 1-.79 3.71 3.47 3.47 0 0 1-2.49 1 3.85 3.85 0 0 1-2.49-1l-10-10-.61 1.28A14.43 14.43 0 0 0 18.55 34l1 .09A14.45 14.45 0 0 0 24 33.4l15.63 15.65a6.65 6.65 0 0 0 9.41 0 6.65 6.65 0 0 0 0-9.41zm-1.41 8a4.67 4.67 0 0 1-6.58 0l-16.5-16.55-.6.22a12.81 12.81 0 0 1-4.25.82l-.94-.13A12.58 12.58 0 0 1 7 19.56a12.13 12.13 0 0 1 .71-4l8 8a5.33 5.33 0 0 0 2 1.25 5.32 5.32 0 0 0 5.83-1.25 5.57 5.57 0 0 0 0-7.8l-8-7.95a12.13 12.13 0 0 1 4-.71A12.58 12.58 0 0 1 32 18.75l.08.81a12.5 12.5 0 0 1-.81 4.34l-.23.6 16.59 16.56a4.66 4.66 0 0 1 0 6.58z" fill="#aaa"/></g></svg>