<svg data-name="Layer 1" xmlns="http://www.w3.org/2000/svg" viewBox="0 0 50 50"><path fill="#ef4136" d="M0 30h20v20H0z"/><path d="M20 5.9l-3.8 3.8a1.22 1.22 0 0 1-1.6 0 1.22 1.22 0 0 1 0-1.6l1.8-1.8H9.8a7.38 7.38 0 0 0-7.4 7.4v4.5a1.2 1.2 0 0 1-1.1 1.2 1.22 1.22 0 0 1-1.2-1.2v-4.5A9.77 9.77 0 0 1 9.8 4h6.6l-1.8-1.8a1.22 1.22 0 0 1 0-1.6 1.22 1.22 0 0 1 1.6 0L20 4.4a1.14 1.14 0 0 1 .3.8 1.74 1.74 0 0 1-.3.7zM50 0v20H30V0zm-2 2H32v16h16zm1.8 34.4v-4.5a1.2 1.2 0 1 0-2.4 0v4.5a7.38 7.38 0 0 1-7.4 7.4h-6.6l1.8-1.8a1.13 1.13 0 0 0-1.6-1.6l-3.8 3.8a1.22 1.22 0 0 0 0 1.6l3.8 3.8a1.22 1.22 0 0 0 1.6 0 1.22 1.22 0 0 0 0-1.6l-1.8-1.8H40a9.82 9.82 0 0 0 9.8-9.8z" fill="#aaa"/></svg>