<svg xmlns="http://www.w3.org/2000/svg" data-name="Layer 1" viewBox="0 0 38.05 48.9"><path fill="#aaa" d="M36.93 48.9a1.12 1.12 0 0 0 1.12-1.12V14.15a1.14 1.14 0 0 0-.33-.8l-13-13a1.14 1.14 0 0 0-.8-.33H1.13A1.14 1.14 0 0 0 0 1.13v46.65a1.13 1.13 0 0 0 1.13 1.12zM25 3.85L34.21 13H25zM2.25 2.25h20.53v11.9a1.13 1.13 0 0 0 1.13 1.12H35.8v31.38H2.25z"/><path fill="#ef4136" d="M28.5 26.5h-19a1.5 1.5 0 0 1 0-3h19a1.5 1.5 0 0 1 0 3zM30 33a1.5 1.5 0 0 0-1.5-1.5h-19a1.5 1.5 0 0 0 0 3h19A1.5 1.5 0 0 0 30 33z"/></svg>