<svg xmlns="http://www.w3.org/2000/svg" data-name="Layer 1" viewBox="0 0 41.4 49.7"><path fill="#aaa" d="M40.12 30.71a17.93 17.93 0 0 0-1.29-3.16 12.17 12.17 0 0 0-1.93-2.71A8.72 8.72 0 0 0 34.15 23a9 9 0 0 0-3.52-.68 3.27 3.27 0 0 0-1.8.85l-2.06 1.42a11.93 11.93 0 0 1-2.72 1.3 10 10 0 0 1-6.7 0 11.72 11.72 0 0 1-2.72-1.3c-.77-.52-1.46-1-2.06-1.42a3.3 3.3 0 0 0-1.8-.85 9 9 0 0 0-3.52.68 8.61 8.61 0 0 0-2.75 1.84 11.77 11.77 0 0 0-1.93 2.71 17.2 17.2 0 0 0-1.29 3.16 29.94 29.94 0 0 0-.78 3.4c-.2 1.21-.33 2.35-.4 3.4S0 39.6 0 40.69a9.08 9.08 0 0 0 2.4 6.59 8.28 8.28 0 0 0 6.18 2.42h24.24A8.28 8.28 0 0 0 39 47.28a9.09 9.09 0 0 0 2.4-6.6c0-1.08 0-2.15-.1-3.18a32.75 32.75 0 0 0-.41-3.39 28.41 28.41 0 0 0-.77-3.4zm-2.77 14.83a6 6 0 0 1-4.56 1.75H8.61a6 6 0 0 1-4.56-1.75 6.59 6.59 0 0 1-1.65-4.78c0-1 0-2.06.09-3s.19-2 .38-3.16a25.33 25.33 0 0 1 .69-3.12 14.54 14.54 0 0 1 1.09-2.7 9.37 9.37 0 0 1 1.5-2.16 6.1 6.1 0 0 1 2-1.36 6.69 6.69 0 0 1 2.42-.51h.16a6.85 6.85 0 0 1 .61.4l2.07 1.47a14.06 14.06 0 0 0 3.25 1.59 11.84 11.84 0 0 0 8.09 0 14 14 0 0 0 3.25-1.6l2.07-1.47c.31-.22.5-.34.6-.4h.16a6.75 6.75 0 0 1 2.43.51 6.1 6.1 0 0 1 2 1.36 9.37 9.37 0 0 1 1.5 2.16 14.54 14.54 0 0 1 1.09 2.7 26.18 26.18 0 0 1 .69 3.12 31.69 31.69 0 0 1 .38 3.16c.06 1 .09 2 .09 3a6.55 6.55 0 0 1-1.66 4.79z"/><path fill="#ef4136" d="M20.2 20a9.68 9.68 0 0 0 7.07-2.93A9.68 9.68 0 0 0 30.2 10a9.68 9.68 0 0 0-2.93-7.07A9.68 9.68 0 0 0 20.2 0a9.68 9.68 0 0 0-7.07 2.93A9.68 9.68 0 0 0 10.2 10a9.68 9.68 0 0 0 2.93 7.07A9.68 9.68 0 0 0 20.2 20z"/></svg>